Coordinates
version=1
nRows=8
nColumns=33
inDegrees=yes

Units are S.I. units (second, meters, Newtons, ...)
Angles are in degrees.

endheader
time	ground_thorax_rot_x	ground_thorax_rot_y	ground_thorax_rot_z	ground_thorax_tx	ground_thorax_ty	ground_thorax_tz	clav_prot_r	clav_elev_r	scapula_abduction_r	scapula_elevation_r	scapula_upward_rot_r	scapula_winging_r	shoulder_elv_r	plane_of_elev_r	axial_rot_r	elbow_flexion_r	pro_sup_r	wrist_flex_r	wrist_dev_r	clav_prot_l	clav_elev_l	scapula_abduction_l	scapula_elevation_l	scapula_upward_rot_l	scapula_winging_l	shoulder_elv_l	plane_of_elev_l	axial_rot_l	elbow_flexion_l	pro_sup_l	wrist_flex_l	wrist_dev_l
      3.02000000	     38.04630896	     -5.31261531	      1.17912961	     -0.91076231	    810.73451641	      4.25869622	     12.23926884	     40.87458964	     45.00000000	     39.31895436	     -9.67596020	  -2962.75780984	  -2638.78975693	    149.35962541	   -120.92167805	   2530.59767034	     10.50441937	     17.68844946	     11.54986115	      4.80074133	    -45.00000000	    -45.00000000	     45.00000000	    -15.92438912	   1884.38619939	  -2258.79785981	    136.65371171	   -179.99999979	      5.37628164	     26.56930256	     14.53579707	    -19.50914218
      3.03000000	     38.03018360	     -4.90606295	      1.79238191	      1.20250509	    808.69755268	      4.49906497	     12.28117630	     40.45898779	     45.00000000	     38.94713681	    -10.52255723	  -2962.74116053	  -2639.06795789	    149.13014567	   -120.37431299	   2530.28791999	     10.34467248	     17.44108164	     11.52498537	      5.30688064	    -45.00000000	    -45.00000000	     45.00000000	    -16.88877393	   1884.37905853	  -2258.71334654	    136.38354666	   -179.99999979	      5.12123389	     26.67614815	     14.54239138	    -19.47128709
      3.04000000	     37.98606145	     -4.88752213	      1.96301901	      3.06100179	    806.91479064	      4.72163293	     12.31465670	     40.09675996	     45.00000000	     38.57885838	    -10.47367440	  -2962.56231995	  -2639.07852252	    149.32206778	   -119.83707509	   2530.09835293	     10.04004293	     17.21506310	     11.66797930	      5.21395734	    -45.00000000	    -45.00000000	     45.00000000	    -16.91714657	   1884.03698141	  -2258.76594413	    136.48930501	   -179.99999979	      4.96834173	     26.82025790	     14.50410560	    -19.40606810
      3.05000000	     38.04643674	     -5.04641338	      2.00888166	      4.61862991	    805.40398928	      4.91690679	     12.27644144	     39.91603185	     45.00000000	     38.32754392	    -10.24740237	  -2962.43960264	  -2639.21762172	    149.44536443	   -119.19121029	   2529.92204184	      9.64267439	     17.05186335	     11.72596077	      5.14076988	    -45.00000000	    -45.00000000	     45.00000000	    -16.84314784	   1883.79643337	  -2258.85504835	    136.56546666	   -179.99999979	      4.80711332	     27.02288956	     14.48457939	    -19.36352368
      3.06000000	     38.13080051	     -5.08573148	      2.21705884	      5.86646882	    804.13582375	      5.07093517	     12.27247846	     39.46614164	     45.00000000	     38.04461054	    -10.15957897	  -2962.31832789	  -2639.19433942	    149.62068553	   -118.46995175	   2529.80000720	      9.25238247	     16.90366138	     11.81169295	      5.05693997	    -45.00000000	    -45.00000000	     45.00000000	    -16.92677984	   1883.57243016	  -2258.97560403	    136.71953828	   -179.99999979	      4.68843794	     27.23560821	     14.41482592	    -19.33066028
      3.07000000	     37.98972712	     -5.00031817	      2.58030389	      6.78655412	    803.08271682	      5.16672599	     12.19445285	     39.28339061	     45.00000000	     37.58835559	    -10.27182707	  -2961.99696479	  -2638.98623472	    150.04788511	   -117.71179455	   2529.86604453	      8.92935995	     16.89288824	     12.08929362	      4.98853126	    -45.00000000	    -45.00000000	     45.00000000	    -16.84817891	   1883.41146316	  -2258.91195470	    137.10670691	   -179.99999979	      4.68252871	     27.39580857	     14.18742878	    -19.34577054
      3.08000000	     38.27738104	     -5.37563230	      2.25803605	      7.37241359	    802.20251255	      5.18643070	     12.14840972	     39.48476693	     45.00000000	     37.67986037	     -9.93893346	  -2962.27047228	  -2639.36655547	    149.79968134	   -117.41953130	   2529.48361286	      8.52271177	     16.75288710	     11.93196801	      4.98566557	    -45.00000000	    -45.00000000	     45.00000000	    -16.80956957	   1883.37732091	  -2259.00210217	    136.68465984	   -179.99999979	      4.54764007	     27.65808659	     14.23812595	    -19.35222243
      3.09000000	     38.26862769	     -5.41394446	      2.55915449	      7.60847331	    801.46955730	      5.11907855	     12.10701086	     39.13604948	     45.00000000	     37.39931538	     -9.88809850	  -2962.07644954	  -2639.27096550	    150.14296917	   -116.88663937	   2529.47341333	      8.21036940	     16.72381735	     12.16244581	      4.84022288	    -45.00000000	    -45.00000000	     45.00000000	    -16.66326128	   1883.29775246	  -2259.03204063	    137.02515183	   -179.99999979	      4.45461215	     27.83342214	     13.97661652	    -19.36233128
